<svg xmlns="http://www.w3.org/2000/svg" width="722" height="183" viewBox="0 0 722 183" fill="none">
<path d="M505.4 131.1H488.4L488.2 131L463.5 108.7H461V131.1H448.6V51.7H461V96.3999H463.6L486.1 76.0999H502.2L473.4 102.7L505.4 131.1ZM438.9 75.8999C438.9 75.8999 437.2 75.5 435.3 75.5C425 75.5 418.8 81.2999 415.3 86.3999V76.2H402.9V131.3H415.3V111.7C415.3 96.2999 422.4 87.8999 435.2 87.8999C437.8 87.8999 438.9 88.0999 438.9 88.0999V75.8999ZM333.7 57.2H320.3L304.7 110.7L288.4 57.0999H276.4L260 110.7L244.4 57.0999H231.1L253.1 130.9V131H266.3L282.3 78.2L298.2 130.9V131H311.4L333.7 57.2ZM198.2 112.4L185.9 76.2V76.0999H176.2L163.9 112.4L152 76.0999H139.5L157.8 131V131.1H169.1L181 96.0999L192.9 131V131.1H204.2L222.5 76.0999H210L198.2 112.4ZM53.8 109.4L10.7 57.2H0V131.2H12.7V79.8L55.8 131L56 131.2H66.6V57.2H53.8V109.4ZM134.8 106.9H91.1C91.7 111.2 93.5 114.7 96.3 117.4C99.2 120.2 102.8 121.6 106.8 121.6C114.2 121.6 119.1 118.7 122.2 112.5L133.3 115.1C128.9 126.3 119.5 132.4 106.8 132.4C90.8 132.4 78.7 120.2 78.7 103.7C78.7 87.1 91 74.8999 107.2 74.8999C121.6 74.8999 136 85.9999 134.8 106.9ZM122.2 97.7C120.8 89.9 114.8 85.5999 107.4 85.5999C101.2 85.5999 93.7 89.4 91.7 97.7H122.2ZM332.9 103.6C332.9 87.1999 345.6 74.8999 362.5 74.8999C379.4 74.8999 392.1 87.1999 392.1 103.6C392.1 120 379.4 132.4 362.5 132.4C345.6 132.4 332.9 120 332.9 103.6ZM379.9 103.6C379.9 91.8999 370.9 85.7 362.5 85.7C354.1 85.7 345.1 91.9999 345.1 103.6C345.1 115.3 354.1 121.5 362.5 121.5C370.9 121.6 379.9 115.3 379.9 103.6Z" fill="#007272"/>
<path d="M539.1 91.4C539.1 40.9 580 0 630.5 0C681 0 721.9 40.9 721.9 91.4C721.9 141.9 681 182.8 630.5 182.8C580 182.8 539.1 141.9 539.1 91.4ZM562.3 73.2C560 81.7 561.8 91.2 566.4 99.4C579.9 123.3 598.6 142 622.5 155.5C630.7 160.1 640.2 161.9 648.7 159.6C657.2 157.3 664.5 151.1 669.3 142.9C683.3 119.3 690.1 93.7 689.8 66.3C689.7 56.9 686.5 47.8 680.3 41.6C674.1 35.4 665 32.2 655.6 32.1C628.2 31.8 602.6 38.6 579 52.6C570.9 57.4 564.6 64.7 562.3 73.2Z" fill="#65DDBD"/>
</svg>
